<?xml version="1.0" encoding="utf-8"?>
<!-- Generator: Adobe Illustrator 24.3.0, SVG Export Plug-In . SVG Version: 6.00 Build 0)  -->
<svg version="1.1" id="Layer_1" xmlns="http://www.w3.org/2000/svg" xmlns:xlink="http://www.w3.org/1999/xlink" x="0px" y="0px"
	 viewBox="0 0 200 28" style="enable-background:new 0 0 200 28;" xml:space="preserve">
<style type="text/css">
	.st0{fill:none;}
</style>
<g>
	<g>
		<path d="M197.8219,9.5752l1.128-6.2472l-2.7764-2.7764h-8.3303l-2.7764,2.7764h-0.0046l-0.001,0.0056l-0.0258,0.0258
			l-1.6008,9.1817l2.3652,2.3988l5.6167,1.1988l0.1905,0.2207l-1.0383,5.7744l-0.3775,0.3775h-2.9995l-0.41-0.3775l0.8077-4.5519
			h-5.1123l-1.0902,6.1933l2.7764,2.7753h8.4244l2.8089-2.8066l1.6377-9.2779l-2.3989-2.3977l-5.5539-1.1988l-0.2207-0.2207
			l1.1378-6.375h3.6597l-0.9477,5.3016H197.8219z"/>
		<path d="M152.076,3.328l-2.7775-2.7764h-10.886l-4.5941,25.9988h11.8954l2.8716-2.8391l3.5858-20.3833H152.076z M143.7576,21.9444
			l-0.5367,0.5355h-3.5663l3.1947-18.2063h4.0621L143.7576,21.9444z"/>
		<polygon points="157.7761,15.4126 162.4402,15.4126 164.6857,11.248 158.5323,11.248 159.7762,4.2736 165.2584,4.2736 
			167.2646,0.5516 155.3053,0.5516 150.71,26.5504 161.2939,26.5504 163.522,22.4172 156.5485,22.4172 		"/>
		<polygon points="130.275,0.5512 125.6796,26.5508 130.7609,26.5508 135.3563,0.5512 		"/>
		<path d="M126.8438,3.328h-0.0546l-2.7775-2.7764h-11.0753l-4.5953,25.9988h5.1125l1.8584-10.6011h1.6835l1.853,10.6011h3.4128
			l2.1083-3.9124h-1.3556l-1.2964-6.6784l3.5011-3.4814L126.8438,3.328z M117.3934,4.2736h4.1405l-1.3,7.4461l-0.474,0.474h-3.787
			L117.3934,4.2736z"/>
		<path d="M182.6146,3.328H182.56l-2.7775-2.7764h-11.0753l-4.5953,25.9988h5.1125l1.8584-10.6011h1.6835l1.853,10.6011h3.4128
			l2.1083-3.9124h-1.3556l-1.2964-6.6784l3.5011-3.4814L182.6146,3.328z M173.1642,4.2736h4.1405l-1.3,7.4461l-0.474,0.474h-3.787
			L173.1642,4.2736z"/>
	</g>
	<g>
		<path d="M62.6007,0.5509h-8.3303l-2.7752,2.7764h-0.0046l-0.001,0.0056l-0.0269,0.0269l-1.602,9.1817l2.3675,2.3977l5.6155,1.1988
			l0.1894,0.2219l-1.037,5.7732l-0.3787,0.3787h-2.9971l-0.4101-0.3787l0.8067-4.5512h-5.1029v-0.0557l-1.0998,6.2483l2.7763,2.7764
			h8.4244l2.8089-2.8077l1.6365-9.2768l-2.3977-2.3988l-5.5539-1.1989l-0.2207-0.2207l1.1376-6.3739h3.662l-0.4991,2.839
			l-0.4468,2.4622h5.1039l0.0035-0.0007l1.128-6.2473L62.6007,0.5509z"/>
		<polygon points="10.2279,0.5509 5.1155,0.5509 0.5202,26.5509 10.8451,26.5509 12.3529,22.3224 6.3901,22.3224 		"/>
		<path d="M28.789,0.5509h-8.7404l-2.7764,2.7764h-0.036l-0.0078,0.0438l-0.0201,0.0201l-3.5846,20.3206l2.8391,2.8391h8.7415
			l2.8391-2.8391l3.5988-20.3075L28.789,0.5509z M23.247,21.9437l-0.5355,0.5367h-3.1562l-0.5356-0.5367L22.1451,4.274h4.2284
			L23.247,21.9437z"/>
		<path d="M45.9315,0.5509h-8.7404l-2.7753,2.7764h-0.0371l-0.008,0.0452L34.352,3.3912l-3.5858,20.3206l2.8403,2.8391h8.7404
			l2.8391-2.8391l3.5998-20.3066L45.9315,0.5509z M40.3906,21.9437l-0.5367,0.5367h-3.1562l-0.5356-0.5367L39.2887,4.274h4.2273
			L40.3906,21.9437z"/>
		<polygon points="71.4779,15.413 76.9437,15.413 79.1879,11.2474 72.2341,11.2474 73.4786,4.2743 79.1879,4.2743 81.1937,0.5513 
			69.0082,0.5513 64.4131,26.5505 74.9819,26.5505 75.0066,26.5295 79.8464,22.4174 70.2503,22.4174 		"/>
	</g>
	<path d="M87.9128,14.1553h-1.4553l-0.2475,1.4044h-2.1236l0.9393-5.3101h0.5205l0.2571-1.4553h-2.5728l-0.2572,1.4553h0.597
		l-0.9131,5.1616h-0.597l-0.2847,1.6025h5.6312L87.9128,14.1553z M96.8853,8.771l1.0635-0.9027l0.5891-3.3328h-2.6608L95.62,5.9894
		h1.2054L96.5912,7.317h-2.6599l0.9393-5.3101h2.6586l-0.2528,1.4361h1.4553l0.3519-1.9886l-0.7433-0.9027h-3.7651l-1.0622,0.904
		l-1.1347,6.4126l0.7433,0.9027H96.8853z M94.4226,19.785h0.5008l0.2572-1.4553h-3.4962l-0.2572,1.4553h0.5014l-2.9247,5.3101
		h-0.6903l-0.2585,1.4553h3.0073l0.2572-1.4553h-0.7482l0.5376-0.9748h2.5993l0.1947,0.9748h-0.7516l-0.2571,1.4553h3.0073
		l0.2571-1.4553h-0.6951L94.4226,19.785z M91.9931,22.5165l1.029-1.8673l0.3698,1.8673H91.9931z M107.1937,10.6367l-0.7406-0.9041
		h-4.7139l-0.2572,1.4553h0.5957l-0.9037,5.1124h-0.5969l-0.2572,1.4553h2.5729l0.2572-1.4553h-0.5205l0.3199-1.8112h2.109
		l-0.5771,3.2666h2.1274l0.2585-1.4553h-0.6747l0.3635-2.0567l-0.3347-0.4072l0.4797-0.4072L107.1937,10.6367z M105.3154,13.0338
		h-2.1091l0.3266-1.8459h2.1091L105.3154,13.0338z M110.7769,0.5516h-1.7715L94.5317,12.8502L84.4095,0.5516h-1.7714
		l10.8518,13.1837L78.4072,26.5504h1.77l0.0246-0.0209l14.0163-11.9092l9.8193,11.9301h1.7714L95.26,13.7352L110.7769,0.5516z"/>
</g>
<rect x="0" class="st0" width="200" height="28"/>
</svg>
